<svg xmlns="http://www.w3.org/2000/svg" width="13.438" height="13.438" viewBox="0 0 13.438 13.438"><path d="M214.207,10.751h-1.344V9.407h1.344V1.344h-8.063V2.688H204.8V1.344A1.348,1.348,0,0,1,206.144,0h8.063a1.348,1.348,0,0,1,1.344,1.344V9.407A1.348,1.348,0,0,1,214.207,10.751Z" transform="translate(-202.112)" fill="#3370ff"/><path d="M9.407,206.144v8.063H1.344v-8.063H9.407m0-1.344H1.344A1.348,1.348,0,0,0,0,206.144v8.063a1.348,1.348,0,0,0,1.344,1.344H9.407a1.348,1.348,0,0,0,1.344-1.344v-8.063A1.348,1.348,0,0,0,9.407,204.8Z" transform="translate(0 -202.112)" fill="#3370ff"/><path d="M207.488,409.6a.723.723,0,0,0-.672.672v1.344h-1.344a.672.672,0,0,0,0,1.344h1.344V414.3a.672.672,0,1,0,1.344,0V412.96H209.5a.672.672,0,1,0,0-1.344H208.16v-1.344A.723.723,0,0,0,207.488,409.6Z" transform="translate(-202.112 -404.225)" fill="#3370ff"/></svg>