<svg xmlns="http://www.w3.org/2000/svg" width="15.594" height="11.676" viewBox="0 0 15.594 11.676"><g transform="translate(-23.467 -157.39)"><path d="M24.007,162.3l4.862,2.809a.974.974,0,0,0,1.513-.972v-5.618a.974.974,0,0,0-1.513-.972l-4.862,2.809A1.145,1.145,0,0,0,24.007,162.3Z" fill="#fff"/><path d="M438.856,336.626a4.492,4.492,0,0,1-.5,5.726,4.3,4.3,0,0,1-3.061,1.26h-3.349a.968.968,0,0,1-.972-.972.93.93,0,0,1,.936-.936h3.313a2.364,2.364,0,0,0,1.693-.72,2.51,2.51,0,0,0,0-3.493,1.938,1.938,0,0,0-1.368-.612h-4.61v-1.945h4.754a3.655,3.655,0,0,1,3.169,1.693Z" transform="translate(-400.588 -174.547)" fill="#fff"/></g></svg>