<svg xmlns="http://www.w3.org/2000/svg" width="13.778" height="11.264" viewBox="0 0 13.778 11.264"><g transform="translate(-0.16 -93.44)"><path d="M194.4,363.472a1.422,1.422,0,0,0-.888-.847,1.39,1.39,0,0,0-.854,0,1.425,1.425,0,0,0-.889.847,1.472,1.472,0,0,0-.072.272,1.338,1.338,0,0,0-.021.237v.032a1.408,1.408,0,0,0,2.817,0v-.032a1.428,1.428,0,0,0-.021-.237A1.407,1.407,0,0,0,194.4,363.472Zm8.409-1.3v-2.02a3.122,3.122,0,0,0-1.065-2.4.266.266,0,0,0-.164-.056H199.43a.265.265,0,0,0-.2.091v4.449a.181.181,0,0,1-.047.119h-.022a.069.069,0,0,0,0,.019.183.183,0,0,1-.113.042h-5.118a1.824,1.824,0,0,1,.3.211,1.783,1.783,0,0,1,.548.847,1.59,1.59,0,0,1,.056.272,1.64,1.64,0,0,1,.019.237c0,.01,0,.022,0,.032h3.936a.272.272,0,0,1,0-.032,1.778,1.778,0,0,1,.017-.237,1.723,1.723,0,0,1,.056-.272,1.792,1.792,0,0,1,.549-.847h.019l-.018,0a1.746,1.746,0,0,1,.783-.387,1.707,1.707,0,0,1,.72,0,1.765,1.765,0,0,1,.784.39,1.794,1.794,0,0,1,.549.847,1.771,1.771,0,0,1,.055.272,1.579,1.579,0,0,1,.019.237c0,.01,0,.022,0,.032h.293a.268.268,0,0,0,.268-.269v-1.39a.273.273,0,0,0-.068-.179Z" transform="translate(-188.943 -260.7)" fill="#3370ff"/><path d="M74.867,225.766a1.422,1.422,0,0,0-.889-.847,1.391,1.391,0,0,0-.854,0,1.423,1.423,0,0,0-.983,1.356v.032a1.408,1.408,0,0,0,2.816,0,.279.279,0,0,0,0-.032,1.383,1.383,0,0,0-.022-.237A1.408,1.408,0,0,0,74.867,225.766Zm-3.258-1.4v-.021h.26v-5.134a.2.2,0,0,1,.008-.039v-.793a.269.269,0,0,0-.268-.271H68a3.394,3.394,0,0,1-5.056,3.859v2.378h.268v.021Zm-6.668.549a1.736,1.736,0,0,1,.3-.211c.04-.021.081-.04.124-.06l.018-.008H63.488v1.4a.268.268,0,0,0,.268.269h.565c0-.01,0-.022,0-.032a1.777,1.777,0,0,1,.018-.237,1.677,1.677,0,0,1,.056-.272A1.778,1.778,0,0,1,64.941,224.919Z" transform="translate(-61.939 -122.995)" fill="#3370ff"/><path d="M1.517,98.214l.315-.333c.143.081.341.143.437.188v.473a.3.3,0,0,0,.306.269h.538a.3.3,0,0,0,.306-.269v-.473c.1-.045.295-.108.437-.188l.324.333a.264.264,0,0,0,.376,0l.378-.381a.27.27,0,0,0,0-.381L4.6,97.137c.081-.142.143-.341.188-.437h.472a.3.3,0,0,0,.269-.307v-.538a.3.3,0,0,0-.269-.306H4.787c-.045-.1-.108-.3-.188-.438l.333-.324a.263.263,0,0,0,0-.376l-.38-.378a.27.27,0,0,0-.381,0l-.316.335c-.142-.081-.341-.143-.437-.188V93.71a.3.3,0,0,0-.306-.27H2.575a.3.3,0,0,0-.306.27v.472c-.1.044-.295.108-.437.189l-.324-.334a.263.263,0,0,0-.375,0l-.378.38a.269.269,0,0,0,0,.381l.333.314c-.08.143-.143.342-.188.438H.43a.3.3,0,0,0-.27.306v.538a.3.3,0,0,0,.27.307H.9c.044.1.108.295.188.437l-.333.324a.264.264,0,0,0,0,.376l.38.378A.269.269,0,0,0,1.517,98.214Zm1.327-3.3a1.211,1.211,0,1,1-1.212,1.211,1.211,1.211,0,0,1,1.212-1.211Z" fill="#3370ff"/></g></svg>