<svg xmlns="http://www.w3.org/2000/svg" width="12.869" height="12.869" viewBox="0 0 12.869 12.869"><path d="M12.064,9.652a.4.4,0,0,1-.4-.4V6.434a.4.4,0,0,0-.4-.4H7.239a.4.4,0,0,1-.4-.4V4.271a.4.4,0,0,1,.4-.4h.732a.4.4,0,0,0,.4-.4V.4a.4.4,0,0,0-.4-.4H4.9a.4.4,0,0,0-.4.4V3.467a.4.4,0,0,0,.4.4H5.63a.4.4,0,0,1,.4.4V5.63a.4.4,0,0,1-.4.4H1.609a.4.4,0,0,0-.4.4V9.241a.4.4,0,0,1-.4.41H.4a.4.4,0,0,0-.4.4v2.413a.4.4,0,0,0,.4.4H2.815a.4.4,0,0,0,.4-.4V10.054a.4.4,0,0,0-.4-.4h-.4a.4.4,0,0,1-.4-.4V7.239a.4.4,0,0,1,.4-.4H5.63a.4.4,0,0,1,.4.4v2a.4.4,0,0,1-.4.41H5.22a.4.4,0,0,0-.4.4v2.413a.4.4,0,0,0,.4.4H7.633a.4.4,0,0,0,.4-.4V10.054a.4.4,0,0,0-.4-.4H7.239a.4.4,0,0,1-.4-.4V7.239a.4.4,0,0,1,.4-.4h3.217a.4.4,0,0,1,.4.4v2a.4.4,0,0,1-.4.4h-.4a.4.4,0,0,0-.4.4v2.413a.4.4,0,0,0,.4.4h2.413a.4.4,0,0,0,.4-.4V10.046a.4.4,0,0,0-.4-.4Z" fill="#3370ff"/></svg>