<svg xmlns="http://www.w3.org/2000/svg" width="10.283" height="10.283" viewBox="0 0 10.283 10.283"><path d="M14.048,4.865a.742.742,0,0,1-.742.742h-8.8a.742.742,0,0,1-.742-.742V4.506a.742.742,0,0,1,.742-.742h8.8a.742.742,0,0,1,.742.742v.358ZM9.137,13.6a.445.445,0,0,1-.445.445H4.21a.445.445,0,0,1-.445-.445V6.666A.445.445,0,0,1,4.21,6.22H8.692a.445.445,0,0,1,.445.445V13.6Zm4.912,0a.445.445,0,0,1-.445.445H10.349A.445.445,0,0,1,9.9,13.6V6.666a.445.445,0,0,1,.445-.445H13.6a.445.445,0,0,1,.445.445Z" transform="translate(-3.765 -3.765)" fill="#3370ff"/></svg>