<svg xmlns="http://www.w3.org/2000/svg" width="11.222" height="11.22" viewBox="0 0 11.222 11.22"><path d="M.653,2.967A7.982,7.982,0,0,1,3.29.544,5.113,5.113,0,0,1,8.2.761,5.767,5.767,0,0,1,9.95,2.274l1.124-.641s.233-.115.233.154V5.812s0,.359-.272.23c-.227-.108-2.7-1.513-3.477-1.955-.426-.192-.052-.346-.052-.346L8.592,3.12A4.68,4.68,0,0,0,7.067,1.933a3.377,3.377,0,0,0-2.99-.144A4.7,4.7,0,0,0,1.883,3.8L.654,2.967Zm10.085,5.32A7.973,7.973,0,0,1,8.1,10.708a5.11,5.11,0,0,1-4.912-.217A5.758,5.758,0,0,1,1.441,8.978L.316,9.619s-.231.115-.231-.152V5.439s0-.358.272-.231c.227.108,2.7,1.513,3.477,1.957.426.19.051.346.051.346L2.8,8.132A4.684,4.684,0,0,0,4.325,9.318a3.375,3.375,0,0,0,2.989.145,4.7,4.7,0,0,0,2.195-2.01l1.229.832v0Z" transform="translate(-0.085 -0.016)" fill="#fff"/></svg>